# xmcd CD database file
#
# Track frame offsets:
#	150
#	23120
#	46610
#	70686
#	84963
#	113546
#	136551
#	156408
#	162572
#	184068
#	204946
#
# Disc length: 2986 seconds
#
# Revision: 0
# Processed by: cddbd v1.5.2PL0 Copyright (c) Steve Scherf et al.
# Submitted via: CDex 1.82
#
DISCID=7d0ba80b
DTITLE=ODIL - RESON
DYEAR=2018
DGENRE=Jazz
TTITLE0=Hold Me
TTITLE1=Marelle
TTITLE2=RESON
TTITLE3=Peyotl part 1
TTITLE4=Aliocha
TTITLE5=Crocodile
TTITLE6=XVI La Maison-Dieu
TTITLE7=Peyotl part 2
TTITLE8=Spring Sprang Spreng
TTITLE9=Pastelle Pasteque
TTITLE10=The Edge Of The Universe
EXTD=YEAR: 2018
EXTT0=
EXTT1=
EXTT2=
EXTT3=
EXTT4=
EXTT5=
EXTT6=
EXTT7=
EXTT8=
EXTT9=
EXTT10=
PLAYORDER=
